<svg width="28" height="28" viewBox="0 0 28 28" fill="none" xmlns="http://www.w3.org/2000/svg">
<g clip-path="url(#clip0_302_307)" filter="url(#filter0_d_302_307)">
<path d="M23.361 18.2168L18.601 13.2662C19.8249 11.8113 20.4955 9.98069 20.4955 8.07499C20.4955 3.62251 16.873 0 12.4205 0C7.968 0 4.34549 3.62251 4.34549 8.07499C4.34549 12.5275 7.968 16.15 12.4205 16.15C14.092 16.15 15.6849 15.6458 17.0467 14.6888L21.8429 19.677C22.0434 19.8852 22.313 20 22.602 20C22.8755 20 23.1349 19.8957 23.3319 19.7061C23.7504 19.3034 23.7637 18.6357 23.361 18.2168ZM12.4205 2.10652C15.7116 2.10652 18.389 4.78391 18.389 8.07499C18.389 11.3661 15.7116 14.0435 12.4205 14.0435C9.1294 14.0435 6.45201 11.3661 6.45201 8.07499C6.45201 4.78391 9.1294 2.10652 12.4205 2.10652Z" fill="white"/>
</g>
<defs>
<filter id="filter0_d_302_307" x="0" y="0" width="28" height="28" filterUnits="userSpaceOnUse" color-interpolation-filters="sRGB">
<feFlood flood-opacity="0" result="BackgroundImageFix"/>
<feColorMatrix in="SourceAlpha" type="matrix" values="0 0 0 0 0 0 0 0 0 0 0 0 0 0 0 0 0 0 127 0" result="hardAlpha"/>
<feOffset dy="4"/>
<feGaussianBlur stdDeviation="2"/>
<feComposite in2="hardAlpha" operator="out"/>
<feColorMatrix type="matrix" values="0 0 0 0 0 0 0 0 0 0 0 0 0 0 0 0 0 0 0.25 0"/>
<feBlend mode="normal" in2="BackgroundImageFix" result="effect1_dropShadow_302_307"/>
<feBlend mode="normal" in="SourceGraphic" in2="effect1_dropShadow_302_307" result="shape"/>
</filter>
<clipPath id="clip0_302_307">
<rect width="20" height="20" fill="white" transform="translate(4)"/>
</clipPath>
</defs>
</svg>
